<svg xmlns="http://www.w3.org/2000/svg" xmlns:xlink="http://www.w3.org/1999/xlink" contentStyleType="text/css" data-diagram-type="CLASS" height="880px" preserveAspectRatio="none" style="width:1598px;height:880px;background:#FFFFFF;" version="1.1" viewBox="0 0 1598 880" width="1598px" zoomAndPan="magnify"><defs/><g><!--class StreamlitApp--><g class="entity" data-entity="StreamlitApp" data-source-line="3" data-uid="ent0002" id="entity_StreamlitApp"><rect fill="#FFFFFF" height="141.7813" rx="2.5" ry="2.5" style="stroke:#000000;stroke-width:1;" width="173.96" x="405.03" y="12"/><ellipse cx="442.5005" cy="26" fill="#FFFFFF" rx="9" ry="9" style="stroke:#000000;stroke-width:1;"/><path d="M445.4693,31.6406 Q444.8911,31.9375 444.2505,32.0781 Q443.6099,32.2344 442.9068,32.2344 Q440.4068,32.2344 439.0786,30.5938 Q437.7661,28.9375 437.7661,25.8125 Q437.7661,22.6875 439.0786,21.0313 Q440.4068,19.375 442.9068,19.375 Q443.6099,19.375 444.2505,19.5313 Q444.9068,19.6875 445.4693,19.9844 L445.4693,22.7031 Q444.8443,22.125 444.2505,21.8594 Q443.6568,21.5781 443.0318,21.5781 Q441.688,21.5781 441.0005,22.6563 Q440.313,23.7188 440.313,25.8125 Q440.313,27.9063 441.0005,28.9844 Q441.688,30.0469 443.0318,30.0469 Q443.6568,30.0469 444.2505,29.7813 Q444.8443,29.5 445.4693,28.9219 L445.4693,31.6406 Z " fill="#000000"/><text fill="#000000" font-family="Verdana" font-size="14" lengthAdjust="spacing" textLength="91.5811" x="459.9384" y="30.8467">StreamlitApp</text><line style="stroke:#000000;stroke-width:1;" x1="406.03" x2="577.99" y1="40" y2="40"/><line style="stroke:#000000;stroke-width:1;" x1="406.03" x2="577.99" y1="48" y2="48"/><ellipse cx="416.03" cy="61.6484" fill="#FFFFFF" rx="3" ry="3" style="stroke:#000000;stroke-width:1;"/><text fill="#000000" font-family="Verdana" font-size="14" lengthAdjust="spacing" textLength="45.9033" x="423.03" y="64.9951">main()</text><ellipse cx="416.03" cy="77.9453" fill="#FFFFFF" rx="3" ry="3" style="stroke:#000000;stroke-width:1;"/><text fill="#000000" font-family="Verdana" font-size="14" lengthAdjust="spacing" textLength="126.8887" x="423.03" y="81.292">initialize_system()</text><ellipse cx="416.03" cy="94.2422" fill="#FFFFFF" rx="3" ry="3" style="stroke:#000000;stroke-width:1;"/><text fill="#000000" font-family="Verdana" font-size="14" lengthAdjust="spacing" textLength="143.5342" x="423.03" y="97.5889">upload_documents()</text><ellipse cx="416.03" cy="110.5391" fill="#FFFFFF" rx="3" ry="3" style="stroke:#000000;stroke-width:1;"/><text fill="#000000" font-family="Verdana" font-size="14" lengthAdjust="spacing" textLength="149.96" x="423.03" y="113.8857">process_documents()</text><ellipse cx="416.03" cy="126.8359" fill="#FFFFFF" rx="3" ry="3" style="stroke:#000000;stroke-width:1;"/><text fill="#000000" font-family="Verdana" font-size="14" lengthAdjust="spacing" textLength="109.6826" x="423.03" y="130.1826">ask_questions()</text><ellipse cx="416.03" cy="143.1328" fill="#FFFFFF" rx="3" ry="3" style="stroke:#000000;stroke-width:1;"/><text fill="#000000" font-family="Verdana" font-size="14" lengthAdjust="spacing" textLength="114.8438" x="423.03" y="146.4795">display_results()</text></g><!--class DocumentParser--><g class="entity" data-entity="DocumentParser" data-source-line="12" data-uid="ent0003" id="entity_DocumentParser"><rect fill="#FFFFFF" height="141.7813" rx="2.5" ry="2.5" style="stroke:#000000;stroke-width:1;" width="315.0879" x="117.46" y="246.37"/><ellipse cx="212.7691" cy="260.37" fill="#FFFFFF" rx="9" ry="9" style="stroke:#000000;stroke-width:1;"/><path d="M215.7378,266.0106 Q215.1597,266.3075 214.5191,266.4481 Q213.8785,266.6044 213.1753,266.6044 Q210.6753,266.6044 209.3472,264.9638 Q208.0347,263.3075 208.0347,260.1825 Q208.0347,257.0575 209.3472,255.4013 Q210.6753,253.745 213.1753,253.745 Q213.8785,253.745 214.5191,253.9013 Q215.1753,254.0575 215.7378,254.3544 L215.7378,257.0731 Q215.1128,256.495 214.5191,256.2294 Q213.9253,255.9481 213.3003,255.9481 Q211.9566,255.9481 211.2691,257.0263 Q210.5816,258.0888 210.5816,260.1825 Q210.5816,262.2763 211.2691,263.3544 Q211.9566,264.4169 213.3003,264.4169 Q213.9253,264.4169 214.5191,264.1513 Q215.1128,263.87 215.7378,263.2919 L215.7378,266.0106 Z " fill="#000000"/><text fill="#000000" font-family="Verdana" font-size="14" lengthAdjust="spacing" textLength="116.9697" x="230.2691" y="265.2167">DocumentParser</text><line style="stroke:#000000;stroke-width:1;" x1="118.46" x2="431.5479" y1="274.37" y2="274.37"/><ellipse cx="128.46" cy="288.0184" fill="none" rx="3" ry="3" style="stroke:#000000;stroke-width:1;"/><text fill="#000000" font-family="Verdana" font-size="14" lengthAdjust="spacing" textLength="195.6035" x="135.46" y="291.3651">supported_formats: List[str]</text><line style="stroke:#000000;stroke-width:1;" x1="118.46" x2="431.5479" y1="298.6669" y2="298.6669"/><ellipse cx="128.46" cy="312.3153" fill="#FFFFFF" rx="3" ry="3" style="stroke:#000000;stroke-width:1;"/><text fill="#000000" font-family="Verdana" font-size="14" lengthAdjust="spacing" textLength="195.3164" x="135.46" y="315.662">parse_pdf(file_path: str): str</text><ellipse cx="128.46" cy="328.6122" fill="#FFFFFF" rx="3" ry="3" style="stroke:#000000;stroke-width:1;"/><text fill="#000000" font-family="Verdana" font-size="14" lengthAdjust="spacing" textLength="206.0488" x="135.46" y="331.9589">parse_docx(file_path: str): str</text><ellipse cx="128.46" cy="344.9091" fill="#FFFFFF" rx="3" ry="3" style="stroke:#000000;stroke-width:1;"/><text fill="#000000" font-family="Verdana" font-size="14" lengthAdjust="spacing" textLength="191.8779" x="135.46" y="348.2557">parse_txt(file_path: str): str</text><ellipse cx="128.46" cy="361.2059" fill="#FFFFFF" rx="3" ry="3" style="stroke:#000000;stroke-width:1;"/><text fill="#000000" font-family="Verdana" font-size="14" lengthAdjust="spacing" textLength="252.5674" x="135.46" y="364.5526">parse_document(file_path: str): Dict</text><ellipse cx="128.46" cy="377.5028" fill="#FFFFFF" rx="3" ry="3" style="stroke:#000000;stroke-width:1;"/><text fill="#000000" font-family="Verdana" font-size="14" lengthAdjust="spacing" textLength="291.0879" x="135.46" y="380.8495">parse_pdf_with_tables(file_path: str): Dict</text></g><!--class TextProcessor--><g class="entity" data-entity="TextProcessor" data-source-line="21" data-uid="ent0004" id="entity_TextProcessor"><rect fill="#FFFFFF" height="158.0781" rx="2.5" ry="2.5" style="stroke:#000000;stroke-width:1;" width="480.4492" x="176.78" y="480.75"/><ellipse cx="363.7932" cy="494.75" fill="#FFFFFF" rx="9" ry="9" style="stroke:#000000;stroke-width:1;"/><path d="M366.7619,500.3906 Q366.1838,500.6875 365.5432,500.8281 Q364.9026,500.9844 364.1994,500.9844 Q361.6994,500.9844 360.3713,499.3438 Q359.0588,497.6875 359.0588,494.5625 Q359.0588,491.4375 360.3713,489.7813 Q361.6994,488.125 364.1994,488.125 Q364.9026,488.125 365.5432,488.2813 Q366.1994,488.4375 366.7619,488.7344 L366.7619,491.4531 Q366.1369,490.875 365.5432,490.6094 Q364.9494,490.3281 364.3244,490.3281 Q362.9807,490.3281 362.2932,491.4063 Q361.6057,492.4688 361.6057,494.5625 Q361.6057,496.6563 362.2932,497.7344 Q362.9807,498.7969 364.3244,498.7969 Q364.9494,498.7969 365.5432,498.5313 Q366.1369,498.25 366.7619,497.6719 L366.7619,500.3906 Z " fill="#000000"/><text fill="#000000" font-family="Verdana" font-size="14" lengthAdjust="spacing" textLength="98.9229" x="381.2932" y="499.5967">TextProcessor</text><line style="stroke:#000000;stroke-width:1;" x1="177.78" x2="656.2292" y1="508.75" y2="508.75"/><ellipse cx="187.78" cy="522.3984" fill="none" rx="3" ry="3" style="stroke:#000000;stroke-width:1;"/><text fill="#000000" font-family="Verdana" font-size="14" lengthAdjust="spacing" textLength="290.9033" x="194.78" y="525.7451">embedding_model: SentenceTransformer</text><ellipse cx="187.78" cy="538.6953" fill="none" rx="3" ry="3" style="stroke:#000000;stroke-width:1;"/><text fill="#000000" font-family="Verdana" font-size="14" lengthAdjust="spacing" textLength="160.6514" x="194.78" y="542.042">date_patterns: List[str]</text><line style="stroke:#000000;stroke-width:1;" x1="177.78" x2="656.2292" y1="549.3438" y2="549.3438"/><ellipse cx="187.78" cy="562.9922" fill="#FFFFFF" rx="3" ry="3" style="stroke:#000000;stroke-width:1;"/><text fill="#000000" font-family="Verdana" font-size="14" lengthAdjust="spacing" textLength="209.2275" x="194.78" y="566.3389">normalize_dates(text: str): str</text><ellipse cx="187.78" cy="579.2891" fill="#FFFFFF" rx="3" ry="3" style="stroke:#000000;stroke-width:1;"/><text fill="#000000" font-family="Verdana" font-size="14" lengthAdjust="spacing" textLength="310.7822" x="194.78" y="582.6357">expand_date_formats(date_str: str): List[str]</text><ellipse cx="187.78" cy="595.5859" fill="#FFFFFF" rx="3" ry="3" style="stroke:#000000;stroke-width:1;"/><text fill="#000000" font-family="Verdana" font-size="14" lengthAdjust="spacing" textLength="456.4492" x="194.78" y="598.9326">chunk_text_smart(text: str, chunk_size: int, overlap: int): List[str]</text><ellipse cx="187.78" cy="611.8828" fill="#FFFFFF" rx="3" ry="3" style="stroke:#000000;stroke-width:1;"/><text fill="#000000" font-family="Verdana" font-size="14" lengthAdjust="spacing" textLength="329.9707" x="194.78" y="615.2295">generate_embeddings(texts: List[str]): ndarray</text><ellipse cx="187.78" cy="628.1797" fill="#FFFFFF" rx="3" ry="3" style="stroke:#000000;stroke-width:1;"/><text fill="#000000" font-family="Verdana" font-size="14" lengthAdjust="spacing" textLength="322.7451" x="194.78" y="631.5264">process_document(document: Dict): List[Dict]</text></g><!--class VectorDatabase--><g class="entity" data-entity="VectorDatabase" data-source-line="31" data-uid="ent0005" id="entity_VectorDatabase"><rect fill="#FFFFFF" height="174.375" rx="2.5" ry="2.5" style="stroke:#000000;stroke-width:1;" width="400.0107" x="12" y="698.82"/><ellipse cx="152.0059" cy="712.82" fill="#FFFFFF" rx="9" ry="9" style="stroke:#000000;stroke-width:1;"/><path d="M154.9746,718.4606 Q154.3965,718.7575 153.7559,718.8981 Q153.1152,719.0544 152.4121,719.0544 Q149.9121,719.0544 148.584,717.4138 Q147.2715,715.7575 147.2715,712.6325 Q147.2715,709.5075 148.584,707.8513 Q149.9121,706.195 152.4121,706.195 Q153.1152,706.195 153.7559,706.3513 Q154.4121,706.5075 154.9746,706.8044 L154.9746,709.5231 Q154.3496,708.945 153.7559,708.6794 Q153.1621,708.3981 152.5371,708.3981 Q151.1934,708.3981 150.5059,709.4763 Q149.8184,710.5388 149.8184,712.6325 Q149.8184,714.7263 150.5059,715.8044 Q151.1934,716.8669 152.5371,716.8669 Q153.1621,716.8669 153.7559,716.6013 Q154.3496,716.32 154.9746,715.7419 L154.9746,718.4606 Z " fill="#000000"/><text fill="#000000" font-family="Verdana" font-size="14" lengthAdjust="spacing" textLength="112.499" x="169.5059" y="717.6667">VectorDatabase</text><line style="stroke:#000000;stroke-width:1;" x1="13" x2="411.0107" y1="726.82" y2="726.82"/><ellipse cx="23" cy="740.4684" fill="none" rx="3" ry="3" style="stroke:#000000;stroke-width:1;"/><text fill="#000000" font-family="Verdana" font-size="14" lengthAdjust="spacing" textLength="99.9414" x="30" y="743.8151">dimension: int</text><ellipse cx="23" cy="756.7653" fill="none" rx="3" ry="3" style="stroke:#000000;stroke-width:1;"/><text fill="#000000" font-family="Verdana" font-size="14" lengthAdjust="spacing" textLength="122.9375" x="30" y="760.112">index: faiss.Index</text><ellipse cx="23" cy="773.0622" fill="none" rx="3" ry="3" style="stroke:#000000;stroke-width:1;"/><text fill="#000000" font-family="Verdana" font-size="14" lengthAdjust="spacing" textLength="122.1377" x="30" y="776.4089">chunks: List[Dict]</text><line style="stroke:#000000;stroke-width:1;" x1="13" x2="411.0107" y1="783.7106" y2="783.7106"/><ellipse cx="23" cy="797.3591" fill="#FFFFFF" rx="3" ry="3" style="stroke:#000000;stroke-width:1;"/><text fill="#000000" font-family="Verdana" font-size="14" lengthAdjust="spacing" textLength="294.7383" x="30" y="800.7057">add_chunks(processed_chunks: List[Dict])</text><ellipse cx="23" cy="813.6559" fill="#FFFFFF" rx="3" ry="3" style="stroke:#000000;stroke-width:1;"/><text fill="#000000" font-family="Verdana" font-size="14" lengthAdjust="spacing" textLength="376.0107" x="30" y="817.0026">search(query_embedding: ndarray, k: int): List[Tuple]</text><ellipse cx="23" cy="829.9528" fill="#FFFFFF" rx="3" ry="3" style="stroke:#000000;stroke-width:1;"/><text fill="#000000" font-family="Verdana" font-size="14" lengthAdjust="spacing" textLength="124.5508" x="30" y="833.2995">save(filepath: str)</text><ellipse cx="23" cy="846.2497" fill="#FFFFFF" rx="3" ry="3" style="stroke:#000000;stroke-width:1;"/><text fill="#000000" font-family="Verdana" font-size="14" lengthAdjust="spacing" textLength="121.7002" x="30" y="849.5964">load(filepath: str)</text><ellipse cx="23" cy="862.5466" fill="#FFFFFF" rx="3" ry="3" style="stroke:#000000;stroke-width:1;"/><text fill="#000000" font-family="Verdana" font-size="14" lengthAdjust="spacing" textLength="112.082" x="30" y="865.8932">get_stats(): Dict</text></g><!--class HybridSearchEngine--><g class="entity" data-entity="HybridSearchEngine" data-source-line="42" data-uid="ent0006" id="entity_HybridSearchEngine"><rect fill="#FFFFFF" height="174.375" rx="2.5" ry="2.5" style="stroke:#000000;stroke-width:1;" width="348.5771" x="490.72" y="698.82"/><ellipse cx="589.9495" cy="712.82" fill="#FFFFFF" rx="9" ry="9" style="stroke:#000000;stroke-width:1;"/><path d="M592.9182,718.4606 Q592.3401,718.7575 591.6995,718.8981 Q591.0589,719.0544 590.3557,719.0544 Q587.8557,719.0544 586.5276,717.4138 Q585.2151,715.7575 585.2151,712.6325 Q585.2151,709.5075 586.5276,707.8513 Q587.8557,706.195 590.3557,706.195 Q591.0589,706.195 591.6995,706.3513 Q592.3557,706.5075 592.9182,706.8044 L592.9182,709.5231 Q592.2932,708.945 591.6995,708.6794 Q591.1057,708.3981 590.4807,708.3981 Q589.137,708.3981 588.4495,709.4763 Q587.762,710.5388 587.762,712.6325 Q587.762,714.7263 588.4495,715.8044 Q589.137,716.8669 590.4807,716.8669 Q591.1057,716.8669 591.6995,716.6013 Q592.2932,716.32 592.9182,715.7419 L592.9182,718.4606 Z " fill="#000000"/><text fill="#000000" font-family="Verdana" font-size="14" lengthAdjust="spacing" textLength="142.6182" x="607.4495" y="717.6667">HybridSearchEngine</text><line style="stroke:#000000;stroke-width:1;" x1="491.72" x2="838.2971" y1="726.82" y2="726.82"/><ellipse cx="501.72" cy="740.4684" fill="none" rx="3" ry="3" style="stroke:#000000;stroke-width:1;"/><text fill="#000000" font-family="Verdana" font-size="14" lengthAdjust="spacing" textLength="189.6016" x="508.72" y="743.8151">keyword_index: defaultdict</text><ellipse cx="501.72" cy="756.7653" fill="none" rx="3" ry="3" style="stroke:#000000;stroke-width:1;"/><text fill="#000000" font-family="Verdana" font-size="14" lengthAdjust="spacing" textLength="161.5059" x="508.72" y="760.112">date_index: defaultdict</text><ellipse cx="501.72" cy="773.0622" fill="none" rx="3" ry="3" style="stroke:#000000;stroke-width:1;"/><text fill="#000000" font-family="Verdana" font-size="14" lengthAdjust="spacing" textLength="130.6895" x="508.72" y="776.4089">chunks_by_id: Dict</text><line style="stroke:#000000;stroke-width:1;" x1="491.72" x2="838.2971" y1="783.7106" y2="783.7106"/><ellipse cx="501.72" cy="797.3591" fill="#FFFFFF" rx="3" ry="3" style="stroke:#000000;stroke-width:1;"/><text fill="#000000" font-family="Verdana" font-size="14" lengthAdjust="spacing" textLength="216.877" x="508.72" y="800.7057">index_chunk(chunk_data: Dict)</text><ellipse cx="501.72" cy="813.6559" fill="#FFFFFF" rx="3" ry="3" style="stroke:#000000;stroke-width:1;"/><text fill="#000000" font-family="Verdana" font-size="14" lengthAdjust="spacing" textLength="225.3809" x="508.72" y="817.0026">extract_dates(text: str): List[str]</text><ellipse cx="501.72" cy="829.9528" fill="#FFFFFF" rx="3" ry="3" style="stroke:#000000;stroke-width:1;"/><text fill="#000000" font-family="Verdana" font-size="14" lengthAdjust="spacing" textLength="324.5771" x="508.72" y="833.2995">generate_date_variants(date_str: str): List[str]</text><ellipse cx="501.72" cy="846.2497" fill="#FFFFFF" rx="3" ry="3" style="stroke:#000000;stroke-width:1;"/><text fill="#000000" font-family="Verdana" font-size="14" lengthAdjust="spacing" textLength="251.6992" x="508.72" y="849.5964">search_by_date(query: str): List[str]</text><ellipse cx="501.72" cy="862.5466" fill="#FFFFFF" rx="3" ry="3" style="stroke:#000000;stroke-width:1;"/><text fill="#000000" font-family="Verdana" font-size="14" lengthAdjust="spacing" textLength="253.4766" x="508.72" y="865.8932">extract_keywords(text: str): List[str]</text></g><!--class QASystem--><g class="entity" data-entity="QASystem" data-source-line="53" data-uid="ent0007" id="entity_QASystem"><rect fill="#FFFFFF" height="206.9688" rx="2.5" ry="2.5" style="stroke:#000000;stroke-width:1;" width="483.915" x="468.05" y="213.78"/><ellipse cx="669.8562" cy="227.78" fill="#FFFFFF" rx="9" ry="9" style="stroke:#000000;stroke-width:1;"/><path d="M672.8249,233.4206 Q672.2468,233.7175 671.6062,233.8581 Q670.9655,234.0144 670.2624,234.0144 Q667.7624,234.0144 666.4343,232.3738 Q665.1218,230.7175 665.1218,227.5925 Q665.1218,224.4675 666.4343,222.8113 Q667.7624,221.155 670.2624,221.155 Q670.9655,221.155 671.6062,221.3113 Q672.2624,221.4675 672.8249,221.7644 L672.8249,224.4831 Q672.1999,223.905 671.6062,223.6394 Q671.0124,223.3581 670.3874,223.3581 Q669.0437,223.3581 668.3562,224.4363 Q667.6687,225.4988 667.6687,227.5925 Q667.6687,229.6863 668.3562,230.7644 Q669.0437,231.8269 670.3874,231.8269 Q671.0124,231.8269 671.6062,231.5613 Q672.1999,231.28 672.8249,230.7019 L672.8249,233.4206 Z " fill="#000000"/><text fill="#000000" font-family="Verdana" font-size="14" lengthAdjust="spacing" textLength="72.8027" x="687.3562" y="232.6267">QASystem</text><line style="stroke:#000000;stroke-width:1;" x1="469.05" x2="950.965" y1="241.78" y2="241.78"/><ellipse cx="479.05" cy="255.4284" fill="none" rx="3" ry="3" style="stroke:#000000;stroke-width:1;"/><text fill="#000000" font-family="Verdana" font-size="14" lengthAdjust="spacing" textLength="211.3945" x="486.05" y="258.7751">text_processor: TextProcessor</text><ellipse cx="479.05" cy="271.7253" fill="none" rx="3" ry="3" style="stroke:#000000;stroke-width:1;"/><text fill="#000000" font-family="Verdana" font-size="14" lengthAdjust="spacing" textLength="190.8457" x="486.05" y="275.072">vector_db: VectorDatabase</text><ellipse cx="479.05" cy="288.0222" fill="none" rx="3" ry="3" style="stroke:#000000;stroke-width:1;"/><text fill="#000000" font-family="Verdana" font-size="14" lengthAdjust="spacing" textLength="250.1748" x="486.05" y="291.3689">hybrid_search: HybridSearchEngine</text><ellipse cx="479.05" cy="304.3191" fill="none" rx="3" ry="3" style="stroke:#000000;stroke-width:1;"/><text fill="#000000" font-family="Verdana" font-size="14" lengthAdjust="spacing" textLength="58.2627" x="486.05" y="307.6657">llm: LLM</text><ellipse cx="479.05" cy="320.6159" fill="none" rx="3" ry="3" style="stroke:#000000;stroke-width:1;"/><text fill="#000000" font-family="Verdana" font-size="14" lengthAdjust="spacing" textLength="87.3975" x="486.05" y="323.9626">llm_type: str</text><line style="stroke:#000000;stroke-width:1;" x1="469.05" x2="950.965" y1="331.2644" y2="331.2644"/><ellipse cx="479.05" cy="344.9128" fill="#FFFFFF" rx="3" ry="3" style="stroke:#000000;stroke-width:1;"/><text fill="#000000" font-family="Verdana" font-size="14" lengthAdjust="spacing" textLength="161.8066" x="486.05" y="348.2595">get_system_info(): Dict</text><ellipse cx="479.05" cy="361.2097" fill="#FFFFFF" rx="3" ry="3" style="stroke:#000000;stroke-width:1;"/><text fill="#000000" font-family="Verdana" font-size="14" lengthAdjust="spacing" textLength="322.9502" x="486.05" y="364.5564">add_documents(processed_chunks: List[Dict])</text><ellipse cx="479.05" cy="377.5066" fill="#FFFFFF" rx="3" ry="3" style="stroke:#000000;stroke-width:1;"/><text fill="#000000" font-family="Verdana" font-size="14" lengthAdjust="spacing" textLength="328.5557" x="486.05" y="380.8532">answer_question(question: str, top_k: int): Dict</text><ellipse cx="479.05" cy="393.8034" fill="#FFFFFF" rx="3" ry="3" style="stroke:#000000;stroke-width:1;"/><text fill="#000000" font-family="Verdana" font-size="14" lengthAdjust="spacing" textLength="404.5645" x="486.05" y="397.1501">answer_question_enhanced(question: str, top_k: int): Dict</text><ellipse cx="479.05" cy="410.1003" fill="#FFFFFF" rx="3" ry="3" style="stroke:#000000;stroke-width:1;"/><text fill="#000000" font-family="Verdana" font-size="14" lengthAdjust="spacing" textLength="459.915" x="486.05" y="413.447">answer_question_with_continuation(question: str, top_k: int): Dict</text></g><!--class OllamaLLM--><g class="entity" data-entity="OllamaLLM" data-source-line="66" data-uid="ent0008" id="entity_OllamaLLM"><rect fill="#FFFFFF" height="125.4844" rx="2.5" ry="2.5" style="stroke:#000000;stroke-width:1;" width="396.6406" x="762.69" y="497.04"/><ellipse cx="918.6236" cy="511.04" fill="#FFFFFF" rx="9" ry="9" style="stroke:#000000;stroke-width:1;"/><path d="M921.5923,516.6806 Q921.0142,516.9775 920.3736,517.1181 Q919.733,517.2744 919.0298,517.2744 Q916.5298,517.2744 915.2017,515.6338 Q913.8892,513.9775 913.8892,510.8525 Q913.8892,507.7275 915.2017,506.0712 Q916.5298,504.415 919.0298,504.415 Q919.733,504.415 920.3736,504.5712 Q921.0298,504.7275 921.5923,505.0244 L921.5923,507.7431 Q920.9673,507.165 920.3736,506.8994 Q919.7798,506.6181 919.1548,506.6181 Q917.8111,506.6181 917.1236,507.6962 Q916.4361,508.7587 916.4361,510.8525 Q916.4361,512.9463 917.1236,514.0244 Q917.8111,515.0869 919.1548,515.0869 Q919.7798,515.0869 920.3736,514.8213 Q920.9673,514.54 921.5923,513.9619 L921.5923,516.6806 Z " fill="#000000"/><text fill="#000000" font-family="Verdana" font-size="14" lengthAdjust="spacing" textLength="77.2734" x="936.1236" y="515.8867">OllamaLLM</text><line style="stroke:#000000;stroke-width:1;" x1="763.69" x2="1158.3306" y1="525.04" y2="525.04"/><ellipse cx="773.69" cy="538.6884" fill="none" rx="3" ry="3" style="stroke:#000000;stroke-width:1;"/><text fill="#000000" font-family="Verdana" font-size="14" lengthAdjust="spacing" textLength="118.002" x="780.69" y="542.0351">model_name: str</text><ellipse cx="773.69" cy="554.9853" fill="none" rx="3" ry="3" style="stroke:#000000;stroke-width:1;"/><text fill="#000000" font-family="Verdana" font-size="14" lengthAdjust="spacing" textLength="86.5977" x="780.69" y="558.332">base_url: str</text><line style="stroke:#000000;stroke-width:1;" x1="763.69" x2="1158.3306" y1="565.6338" y2="565.6338"/><ellipse cx="773.69" cy="579.2822" fill="#FFFFFF" rx="3" ry="3" style="stroke:#000000;stroke-width:1;"/><text fill="#000000" font-family="Verdana" font-size="14" lengthAdjust="spacing" textLength="174.1113" x="780.69" y="582.6289">ensure_ollama_running()</text><ellipse cx="773.69" cy="595.5791" fill="#FFFFFF" rx="3" ry="3" style="stroke:#000000;stroke-width:1;"/><text fill="#000000" font-family="Verdana" font-size="14" lengthAdjust="spacing" textLength="179.7305" x="780.69" y="598.9257">ensure_model_available()</text><ellipse cx="773.69" cy="611.8759" fill="#FFFFFF" rx="3" ry="3" style="stroke:#000000;stroke-width:1;"/><text fill="#000000" font-family="Verdana" font-size="14" lengthAdjust="spacing" textLength="372.6406" x="780.69" y="615.2226">generate_response(prompt: str, max_tokens: int): str</text></g><!--class HuggingFaceLLM--><g class="entity" data-entity="HuggingFaceLLM" data-source-line="74" data-uid="ent0009" id="entity_HuggingFaceLLM"><rect fill="#FFFFFF" height="76.5938" rx="2.5" ry="2.5" style="stroke:#000000;stroke-width:1;" width="396.6406" x="1194.69" y="521.49"/><ellipse cx="1329.5381" cy="535.49" fill="#FFFFFF" rx="9" ry="9" style="stroke:#000000;stroke-width:1;"/><path d="M1332.5069,541.1306 Q1331.9288,541.4275 1331.2881,541.5681 Q1330.6475,541.7244 1329.9444,541.7244 Q1327.4444,541.7244 1326.1163,540.0838 Q1324.8038,538.4275 1324.8038,535.3025 Q1324.8038,532.1775 1326.1163,530.5213 Q1327.4444,528.865 1329.9444,528.865 Q1330.6475,528.865 1331.2881,529.0213 Q1331.9444,529.1775 1332.5069,529.4744 L1332.5069,532.1931 Q1331.8819,531.615 1331.2881,531.3494 Q1330.6944,531.0681 1330.0694,531.0681 Q1328.7256,531.0681 1328.0381,532.1463 Q1327.3506,533.2088 1327.3506,535.3025 Q1327.3506,537.3963 1328.0381,538.4744 Q1328.7256,539.5369 1330.0694,539.5369 Q1330.6944,539.5369 1331.2881,539.2713 Q1331.8819,538.99 1332.5069,538.4119 L1332.5069,541.1306 Z " fill="#000000"/><text fill="#000000" font-family="Verdana" font-size="14" lengthAdjust="spacing" textLength="119.4443" x="1347.0381" y="540.3367">HuggingFaceLLM</text><line style="stroke:#000000;stroke-width:1;" x1="1195.69" x2="1590.3306" y1="549.49" y2="549.49"/><ellipse cx="1205.69" cy="563.1384" fill="none" rx="3" ry="3" style="stroke:#000000;stroke-width:1;"/><text fill="#000000" font-family="Verdana" font-size="14" lengthAdjust="spacing" textLength="133.8408" x="1212.69" y="566.4851">generator: pipeline</text><line style="stroke:#000000;stroke-width:1;" x1="1195.69" x2="1590.3306" y1="573.7869" y2="573.7869"/><ellipse cx="1205.69" cy="587.4353" fill="#FFFFFF" rx="3" ry="3" style="stroke:#000000;stroke-width:1;"/><text fill="#000000" font-family="Verdana" font-size="14" lengthAdjust="spacing" textLength="372.6406" x="1212.69" y="590.782">generate_response(prompt: str, max_tokens: int): str</text></g><!--link StreamlitApp to QASystem--><g class="link" data-entity-1="StreamlitApp" data-entity-2="QASystem" data-source-line="79" data-uid="lnk10" id="link_StreamlitApp_QASystem"><path codeLine="79" d="M558,154.24 C575.55,172.94 590.7537,189.1552 609.5637,209.1952" fill="none" id="StreamlitApp-to-QASystem" style="stroke:#000000;stroke-width:1;"/><polygon fill="#000000" points="613.67,213.57,610.4271,204.2703,610.2481,209.9244,604.5941,209.7453,613.67,213.57" style="stroke:#000000;stroke-width:1;"/></g><!--link StreamlitApp to DocumentParser--><g class="link" data-entity-1="StreamlitApp" data-entity-2="DocumentParser" data-source-line="80" data-uid="lnk11" id="link_StreamlitApp_DocumentParser"><path codeLine="80" d="M426.31,154.24 C399.12,183.36 371.7455,212.6751 344.5755,241.7651" fill="none" id="StreamlitApp-to-DocumentParser" style="stroke:#000000;stroke-width:1;"/><polygon fill="#000000" points="340.48,246.15,349.5465,242.303,343.8929,242.4959,343.6999,236.8424,340.48,246.15" style="stroke:#000000;stroke-width:1;"/></g><!--link QASystem to TextProcessor--><g class="link" data-entity-1="QASystem" data-entity-2="TextProcessor" data-source-line="81" data-uid="lnk12" id="link_QASystem_TextProcessor"><path codeLine="81" d="M584.9,420.96 C560.63,440.88 540.2083,457.6539 517.0783,476.6339" fill="none" id="QASystem-to-TextProcessor" style="stroke:#000000;stroke-width:1;"/><polygon fill="#000000" points="512.44,480.44,521.9348,477.8231,516.3052,477.2683,516.86,471.6387,512.44,480.44" style="stroke:#000000;stroke-width:1;"/></g><!--link QASystem to VectorDatabase--><g class="link" data-entity-1="QASystem" data-entity-2="VectorDatabase" data-source-line="82" data-uid="lnk13" id="link_QASystem_VectorDatabase"><path codeLine="82" d="M467.58,415.34 C461.68,417.21 455.82,419.02 450.01,420.75 C323.44,458.43 242.42,378.38 159.01,480.75 C109.55,541.43 131.2885,626.3882 161.2085,692.8982" fill="none" id="QASystem-to-VectorDatabase" style="stroke:#000000;stroke-width:1;"/><polygon fill="#000000" points="163.67,698.37,163.6256,688.5212,161.6187,693.8101,156.3298,691.8033,163.67,698.37" style="stroke:#000000;stroke-width:1;"/></g><!--link QASystem to HybridSearchEngine--><g class="link" data-entity-1="QASystem" data-entity-2="HybridSearchEngine" data-source-line="83" data-uid="lnk14" id="link_QASystem_HybridSearchEngine"><path codeLine="83" d="M700.1,420.98 C692.08,504.19 681.4859,614.1177 673.9159,692.6177" fill="none" id="QASystem-to-HybridSearchEngine" style="stroke:#000000;stroke-width:1;"/><polygon fill="#000000" points="673.34,698.59,678.1854,690.0155,673.8199,693.6131,670.2224,689.2476,673.34,698.59" style="stroke:#000000;stroke-width:1;"/></g><!--link QASystem to OllamaLLM--><g class="link" data-entity-1="QASystem" data-entity-2="OllamaLLM" data-source-line="84" data-uid="lnk15" id="link_QASystem_OllamaLLM"><path codeLine="84" d="M817.18,420.96 C844.1,446.76 867.8276,469.499 891.9476,492.609" fill="none" id="QASystem-to-OllamaLLM" style="stroke:#000000;stroke-width:1;"/><polygon fill="#000000" points="896.28,496.76,892.5487,487.6453,892.6697,493.3009,887.0141,493.4218,896.28,496.76" style="stroke:#000000;stroke-width:1;"/></g><!--link QASystem to HuggingFaceLLM--><g class="link" data-entity-1="QASystem" data-entity-2="HuggingFaceLLM" data-source-line="85" data-uid="lnk16" id="link_QASystem_HuggingFaceLLM"><path codeLine="85" d="M952.28,401.94 C1024.63,427.1 1104.09,454.89 1177.01,480.75 C1213.65,493.74 1248.0681,506.1181 1283.6281,518.9881" fill="none" id="QASystem-to-HuggingFaceLLM" style="stroke:#000000;stroke-width:1;"/><polygon fill="#000000" points="1289.27,521.03,1282.1685,514.2059,1284.5685,519.3284,1279.4459,521.7284,1289.27,521.03" style="stroke:#000000;stroke-width:1;"/></g><!--link TextProcessor to VectorDatabase--><g class="link" data-entity-1="TextProcessor" data-entity-2="VectorDatabase" data-source-line="86" data-uid="lnk17" id="link_TextProcessor_VectorDatabase"><path codeLine="86" d="M345.31,639.21 C327.76,658.41 312.9281,674.6213 295.0581,694.1713" fill="none" id="TextProcessor-to-VectorDatabase" style="stroke:#000000;stroke-width:1;"/><polygon fill="#000000" points="291.01,698.6,300.0346,694.6557,294.3834,694.9095,294.1297,689.2583,291.01,698.6" style="stroke:#000000;stroke-width:1;"/></g><!--link TextProcessor to HybridSearchEngine--><g class="link" data-entity-1="TextProcessor" data-entity-2="HybridSearchEngine" data-source-line="87" data-uid="lnk18" id="link_TextProcessor_HybridSearchEngine"><path codeLine="87" d="M503.74,639.21 C524.98,658.41 543.3597,675.0258 564.9797,694.5758" fill="none" id="TextProcessor-to-HybridSearchEngine" style="stroke:#000000;stroke-width:1;"/><polygon fill="#000000" points="569.43,698.6,565.4373,689.5967,565.7214,695.2465,560.0717,695.5305,569.43,698.6" style="stroke:#000000;stroke-width:1;"/></g><!--SRC=[dLNRRjim37tFLtXlBjRk0_mme40tR427TKYnbw4G68j9XCYI9j5fl67_FbrygHmN6VPYo28b7XuUKczeZmqMHe9GgrKjmRbYJHQXaO9kZIb-huhYRUEjvLLO2IL8W1I_aBdE4JPfkpLI0sTSrss3YbpQDLRNwDny6zo1_MpHaT2gt-B2UGWTi-XQ6Vt-36Zk-iCFO1tQXCUrncXBoDbMsmR8LSMzSFJ3aNsAWOClCtnRReNq2w1zLNZZLVnE7XxOwO8BdUZo9H7WkTkTg2c3mvu5xHd1Hg9xnNtC-n5Fz908r7tQs6oGSw5shD4SPLMiVLXKDJvQK2vGWH4N1uet4rerfqO5mcBzWfShoOUPfOKd0uf7-y1l6N-yVN3DxgpthJgmS1Dp3LYQBhqkaitvW5KX55qN-eXMWeb_yujsgD26I6Ec2U3B9FmPnS5Qw9OaLWwBHESG8AoV9cw_OqtQte6l13XCv7BXZpaloOWiQPtZgIgs89nxzpdyZCcwxDwWQSvPifGz91msNhf6iJi4M-zBtmAscp8Tqxek3XavZxwvC0PnSCGecqarOJkqtiBs3dqvA1JlJ5kVkeqLV1rnV50xeNeE3jWzQyjPdpd7BVXsvBsCemQMJIbJjkcOu9FkeszYeKmwy5T0NvcaDB9Gqu8KbsKH4Hp12b2ND9b83eY2Mo9xqN70qEV-6eoHks-twpZu4cDHz6Peqohlsk1mZ59ZV5FDL1UC-rW7bh1M2sM9vPMD1tB_fLypwWoElHgB7F7uocnr-MBg14bEa_UYAlq4UKOx3kPoMFHzJDgmKPTZYFmCGxK7FuxuVnsEix7MYeHguTyWZ4NvAYKqu4dgtwim7fc2PY8gKCvQAwSffrnhaUbuajbMAT-4wJNgJUaME8AGOMANLvaM_LDb_Fk5WTd63EEkWHCZVS0mTnFG46vgl7Rdoxhx23MEOFiRWtgCC2ZxilzleEprlhbvFmhst98_hQjHsS6M2pappNISsHOadDd7GisEPRoiyhTl8UQvmtdWlm00]--></g></svg>