<svg xmlns="http://www.w3.org/2000/svg" xmlns:xlink="http://www.w3.org/1999/xlink" contentStyleType="text/css" data-diagram-type="STATE" height="929px" preserveAspectRatio="none" style="width:576px;height:929px;background:#FFFFFF;" version="1.1" viewBox="0 0 576 929" width="576px" zoomAndPan="magnify"><defs/><g><path d="M24.5,12 L290.2519,12 A12.5,12.5 0 0 1 302.7519,24.5 L302.7519,38.2969 L12,38.2969 L12,24.5 A12.5,12.5 0 0 1 24.5,12" fill="#FFFFFF"/><path d="M12,38.2969 L302.7519,38.2969 L302.7519,402.7969 A12.5,12.5 0 0 1 290.2519,415.2969 L24.5,415.2969 A12.5,12.5 0 0 1 12,402.7969 L12,38.2969" fill="#FFFFFF"/><rect fill="none" height="403.2969" rx="12.5" ry="12.5" style="stroke:#000000;stroke-width:1;" width="290.7519" x="12" y="12"/><line style="stroke:#000000;stroke-width:1;" x1="12" x2="302.7519" y1="38.2969" y2="38.2969"/><text fill="#000000" font-family="Verdana" font-size="14" lengthAdjust="spacing" textLength="143.124" x="85.8139" y="29.9951">AnsweringQuestions</text><ellipse cx="162.04" cy="59.2969" fill="#FFFFFF" rx="10" ry="10" style="stroke:#000000;stroke-width:1;"/><g id="AnsweringQuestions.DetectingQueryType"><rect fill="#FFFFFF" height="50" rx="12.5" ry="12.5" style="stroke:#000000;stroke-width:1;" width="165.2158" x="79.43" y="106.2969"/><line style="stroke:#000000;stroke-width:1;" x1="79.43" x2="244.6458" y1="132.5938" y2="132.5938"/><text fill="#000000" font-family="Verdana" font-size="14" lengthAdjust="spacing" textLength="145.2158" x="89.43" y="124.292">DetectingQueryType</text></g><g id="AnsweringQuestions.SemanticSearch"><rect fill="#FFFFFF" height="50" rx="12.5" ry="12.5" style="stroke:#000000;stroke-width:1;" width="134.0713" x="24" y="209.2969"/><line style="stroke:#000000;stroke-width:1;" x1="24" x2="158.0713" y1="235.5938" y2="235.5938"/><text fill="#000000" font-family="Verdana" font-size="14" lengthAdjust="spacing" textLength="114.0713" x="34" y="227.292">SemanticSearch</text></g><g id="AnsweringQuestions.HybridSearch"><rect fill="#FFFFFF" height="50" rx="12.5" ry="12.5" style="stroke:#000000;stroke-width:1;" width="114.6367" x="175.72" y="209.2969"/><line style="stroke:#000000;stroke-width:1;" x1="175.72" x2="290.3567" y1="235.5938" y2="235.5938"/><text fill="#000000" font-family="Verdana" font-size="14" lengthAdjust="spacing" textLength="94.6367" x="185.72" y="227.292">HybridSearch</text></g><g id="AnsweringQuestions.GeneratingAnswer"><rect fill="#FFFFFF" height="50" rx="12.5" ry="12.5" style="stroke:#000000;stroke-width:1;" width="149.9854" x="86.04" y="296.2969"/><line style="stroke:#000000;stroke-width:1;" x1="86.04" x2="236.0254" y1="322.5938" y2="322.5938"/><text fill="#000000" font-family="Verdana" font-size="14" lengthAdjust="spacing" textLength="129.9854" x="96.04" y="314.292">GeneratingAnswer</text></g><ellipse cx="161.04" cy="394.2969" fill="none" rx="11" ry="11" style="stroke:#000000;stroke-width:1;"/><ellipse cx="161.04" cy="394.2969" fill="#FFFFFF" rx="6" ry="6" style="stroke:#000000;stroke-width:1;"/><!--link *start*AnsweringQuestions to DetectingQueryType--><g class="link" data-entity-1=".start.AnsweringQuestions" data-entity-2="DetectingQueryType" data-source-line="12" data-uid="lnk16" id="link_.start.AnsweringQuestions_DetectingQueryType"><path d="M162.04,69.7369 C162.04,78.9969 162.04,87.4869 162.04,99.9769" fill="none" id="*start*AnsweringQuestions-to-DetectingQueryType" style="stroke:#000000;stroke-width:1;"/><polygon fill="#000000" points="162.04,105.9769,166.04,96.9769,162.04,100.9769,158.04,96.9769,162.04,105.9769" style="stroke:#000000;stroke-width:1;"/></g><!--link DetectingQueryType to SemanticSearch--><g class="link" data-entity-1="DetectingQueryType" data-entity-2="SemanticSearch" data-source-line="13" data-uid="lnk18" id="link_DetectingQueryType_SemanticSearch"><path d="M117.12,156.7669 C110.93,161.8369 105.25,167.6869 101.04,174.2969 C94.5,184.5469 92.3518,191.7679 91.4018,203.0879" fill="none" id="DetectingQueryType-to-SemanticSearch" style="stroke:#000000;stroke-width:1;"/><polygon fill="#000000" points="90.9,209.0669,95.6386,200.4329,91.3181,204.0844,87.6667,199.7639,90.9,209.0669" style="stroke:#000000;stroke-width:1;"/><text fill="#000000" font-family="Verdana" font-size="13" lengthAdjust="spacing" textLength="105.5425" x="102.04" y="187.3638">Technical Query</text></g><!--link DetectingQueryType to HybridSearch--><g class="link" data-entity-1="DetectingQueryType" data-entity-2="HybridSearch" data-source-line="14" data-uid="lnk20" id="link_DetectingQueryType_HybridSearch"><path d="M192.2,156.3469 C197.93,161.8369 203.54,167.9369 208.04,174.2969 C215.43,184.7369 219.1266,192.0839 223.2666,203.2039" fill="none" id="DetectingQueryType-to-HybridSearch" style="stroke:#000000;stroke-width:1;"/><polygon fill="#000000" points="225.36,208.8269,225.9685,198.9968,223.6155,204.1411,218.4712,201.7881,225.36,208.8269" style="stroke:#000000;stroke-width:1;"/><text fill="#000000" font-family="Verdana" font-size="13" lengthAdjust="spacing" textLength="74.7119" x="218.04" y="187.3638">Date Query</text></g><!--link SemanticSearch to GeneratingAnswer--><g class="link" data-entity-1="SemanticSearch" data-entity-2="GeneratingAnswer" data-source-line="15" data-uid="lnk22" id="link_SemanticSearch_GeneratingAnswer"><path d="M110.91,259.4269 C120.29,270.8169 127.6465,279.7447 137.0565,291.1747" fill="none" id="SemanticSearch-to-GeneratingAnswer" style="stroke:#000000;stroke-width:1;"/><polygon fill="#000000" points="140.87,295.8069,138.2378,286.3163,137.6921,291.9467,132.0616,291.401,140.87,295.8069" style="stroke:#000000;stroke-width:1;"/></g><!--link HybridSearch to GeneratingAnswer--><g class="link" data-entity-1="HybridSearch" data-entity-2="GeneratingAnswer" data-source-line="16" data-uid="lnk23" id="link_HybridSearch_GeneratingAnswer"><path d="M212.6,259.4269 C202.95,270.8169 195.3376,279.7982 185.6576,291.2282" fill="none" id="HybridSearch-to-GeneratingAnswer" style="stroke:#000000;stroke-width:1;"/><polygon fill="#000000" points="181.78,295.8069,190.6489,291.524,185.0114,291.9913,184.544,286.3538,181.78,295.8069" style="stroke:#000000;stroke-width:1;"/></g><!--link GeneratingAnswer to *end*AnsweringQuestions--><g class="link" data-entity-1="GeneratingAnswer" data-entity-2=".end.AnsweringQuestions" data-source-line="17" data-uid="lnk25" id="link_GeneratingAnswer_.end.AnsweringQuestions"><path d="M161.04,346.7269 C161.04,359.0869 161.04,367.4269 161.04,376.8969" fill="none" id="GeneratingAnswer-to-*end*AnsweringQuestions" style="stroke:#000000;stroke-width:1;"/><polygon fill="#000000" points="161.04,382.8969,165.04,373.8969,161.04,377.8969,157.04,373.8969,161.04,382.8969" style="stroke:#000000;stroke-width:1;"/></g><ellipse cx="373.38" cy="213.65" fill="#FFFFFF" rx="10" ry="10" style="stroke:#000000;stroke-width:1;"/><g id="Uninitialized"><rect fill="#FFFFFF" height="50" rx="12.5" ry="12.5" style="stroke:#000000;stroke-width:1;" width="106.3584" x="320.2" y="492.3"/><line style="stroke:#000000;stroke-width:1;" x1="320.2" x2="426.5584" y1="518.5969" y2="518.5969"/><text fill="#000000" font-family="Verdana" font-size="14" lengthAdjust="spacing" textLength="86.3584" x="330.2" y="510.2951">Uninitialized</text></g><g id="SystemReady"><rect fill="#FFFFFF" height="50" rx="12.5" ry="12.5" style="stroke:#000000;stroke-width:1;" width="116.2979" x="309.23" y="619.3"/><line style="stroke:#000000;stroke-width:1;" x1="309.23" x2="425.5279" y1="645.5969" y2="645.5969"/><text fill="#000000" font-family="Verdana" font-size="14" lengthAdjust="spacing" textLength="96.2979" x="319.23" y="637.2951">SystemReady</text></g><g id="DocumentsUploaded"><rect fill="#FFFFFF" height="50" rx="12.5" ry="12.5" style="stroke:#000000;stroke-width:1;" width="166.3779" x="258.19" y="746.3"/><line style="stroke:#000000;stroke-width:1;" x1="258.19" x2="424.5679" y1="772.5969" y2="772.5969"/><text fill="#000000" font-family="Verdana" font-size="14" lengthAdjust="spacing" textLength="146.3779" x="268.19" y="764.2951">DocumentsUploaded</text></g><g id="ProcessingDocuments"><rect fill="#FFFFFF" height="50" rx="12.5" ry="12.5" style="stroke:#000000;stroke-width:1;" width="175.1348" x="125.81" y="873.3"/><line style="stroke:#000000;stroke-width:1;" x1="125.81" x2="300.9448" y1="899.5969" y2="899.5969"/><text fill="#000000" font-family="Verdana" font-size="14" lengthAdjust="spacing" textLength="155.1348" x="135.81" y="891.2951">ProcessingDocuments</text></g><g id="DocumentsProcessed"><rect fill="#FFFFFF" height="50" rx="12.5" ry="12.5" style="stroke:#000000;stroke-width:1;" width="170.9854" x="105.88" y="492.3"/><line style="stroke:#000000;stroke-width:1;" x1="105.88" x2="276.8654" y1="518.5969" y2="518.5969"/><text fill="#000000" font-family="Verdana" font-size="14" lengthAdjust="spacing" textLength="150.9854" x="115.88" y="510.2951">DocumentsProcessed</text></g><ellipse cx="527.38" cy="771.3" fill="none" rx="11" ry="11" style="stroke:#000000;stroke-width:1;"/><ellipse cx="527.38" cy="771.3" fill="#FFFFFF" rx="6" ry="6" style="stroke:#000000;stroke-width:1;"/><!--link *start* to Uninitialized--><g class="link" data-entity-1=".start." data-entity-2="Uninitialized" data-source-line="3" data-uid="lnk4" id="link_.start._Uninitialized"><path d="M373.38,224.01 C373.38,264.98 373.38,423.28 373.38,485.89" fill="none" id="*start*-to-Uninitialized" style="stroke:#000000;stroke-width:1;"/><polygon fill="#000000" points="373.38,491.89,377.38,482.89,373.38,486.89,369.38,482.89,373.38,491.89" style="stroke:#000000;stroke-width:1;"/></g><!--link Uninitialized to SystemReady--><g class="link" data-entity-1="Uninitialized" data-entity-2="SystemReady" data-source-line="5" data-uid="lnk6" id="link_Uninitialized_SystemReady"><path d="M372.2,542.7 C371.15,564.72 369.8888,590.967 368.8288,612.967" fill="none" id="Uninitialized-to-SystemReady" style="stroke:#000000;stroke-width:1;"/><polygon fill="#000000" points="368.54,618.96,372.9685,610.1629,368.7806,613.9658,364.9778,609.7779,368.54,618.96" style="stroke:#000000;stroke-width:1;"/><text fill="#000000" font-family="Verdana" font-size="13" lengthAdjust="spacing" textLength="107.0151" x="371.38" y="585.3669">Initialize System</text></g><!--link SystemReady to DocumentsUploaded--><g class="link" data-entity-1="SystemReady" data-entity-2="DocumentsUploaded" data-source-line="6" data-uid="lnk8" id="link_SystemReady_DocumentsUploaded"><path d="M362.3,669.7 C357.72,691.72 352.2429,718.0859 347.6629,740.0859" fill="none" id="SystemReady-to-DocumentsUploaded" style="stroke:#000000;stroke-width:1;"/><polygon fill="#000000" points="346.44,745.96,352.1903,737.9642,347.4591,741.0649,344.3583,736.3337,346.44,745.96" style="stroke:#000000;stroke-width:1;"/><text fill="#000000" font-family="Verdana" font-size="13" lengthAdjust="spacing" textLength="123.8047" x="356.38" y="712.3669">Upload Documents</text></g><!--link DocumentsUploaded to ProcessingDocuments--><g class="link" data-entity-1="DocumentsUploaded" data-entity-2="ProcessingDocuments" data-source-line="7" data-uid="lnk10" id="link_DocumentsUploaded_ProcessingDocuments"><path d="M316.39,796.7 C293.84,818.72 265.1228,846.7682 242.5928,868.7682" fill="none" id="DocumentsUploaded-to-ProcessingDocuments" style="stroke:#000000;stroke-width:1;"/><polygon fill="#000000" points="238.3,872.96,247.5338,869.5341,241.8774,869.4668,241.9447,863.8103,238.3,872.96" style="stroke:#000000;stroke-width:1;"/><text fill="#000000" font-family="Verdana" font-size="13" lengthAdjust="spacing" textLength="128.083" x="285.38" y="839.3669">Process Documents</text></g><!--link ProcessingDocuments to DocumentsProcessed--><g class="link" data-entity-1="ProcessingDocuments" data-entity-2="DocumentsProcessed" data-source-line="8" data-uid="lnk12" id="link_ProcessingDocuments_DocumentsProcessed"><path d="M211.98,873.22 C208.02,805.01 197.1074,617.0299 193.1374,548.5699" fill="none" id="ProcessingDocuments-to-DocumentsProcessed" style="stroke:#000000;stroke-width:1;"/><polygon fill="#000000" points="192.79,542.58,189.3177,551.7965,193.0795,547.5716,197.3043,551.3333,192.79,542.58" style="stroke:#000000;stroke-width:1;"/><text fill="#000000" font-family="Verdana" font-size="13" lengthAdjust="spacing" textLength="136.7158" x="204.38" y="712.3669">Processing Complete</text></g><!--link DocumentsProcessed to AnsweringQuestions--><g class="link" data-entity-1="DocumentsProcessed" data-entity-2="AnsweringQuestions" data-source-line="9" data-uid="lnk13" id="link_DocumentsProcessed_AnsweringQuestions"><path d="M189.54,491.96 C188.45,478.25 186.97,460.8 185.38,445.3 C184.37,435.57 183.9628,431.5744 182.8628,421.5244" fill="none" id="DocumentsProcessed-to-AnsweringQuestions" style="stroke:#000000;stroke-width:1;"/><polygon fill="#000000" points="182.21,415.56,179.213,424.9418,182.754,420.5303,187.1655,424.0714,182.21,415.56" style="stroke:#000000;stroke-width:1;"/><text fill="#000000" font-family="Verdana" font-size="13" lengthAdjust="spacing" textLength="85.4712" x="188.38" y="458.3669">Ask Question</text></g><!--link AnsweringQuestions to DocumentsProcessed--><g class="link" data-entity-1="AnsweringQuestions" data-entity-2="DocumentsProcessed" data-source-line="20" data-uid="lnk26" id="link_AnsweringQuestions_DocumentsProcessed"><path d="M69.27,415.67 C70.72,431.93 75.39,447.7 84.38,462.3 C92.01,474.7 98.3103,481.2977 110.9303,488.7877" fill="none" id="AnsweringQuestions-to-DocumentsProcessed" style="stroke:#000000;stroke-width:1;"/><polygon fill="#000000" points="116.09,491.85,110.392,483.8168,111.7903,489.2981,106.3089,490.6964,116.09,491.85" style="stroke:#000000;stroke-width:1;"/><text fill="#000000" font-family="Verdana" font-size="13" lengthAdjust="spacing" textLength="91.8506" x="85.38" y="458.3669">Continue Q&amp;A</text></g><!--link DocumentsProcessed to SystemReady--><g class="link" data-entity-1="DocumentsProcessed" data-entity-2="SystemReady" data-source-line="21" data-uid="lnk27" id="link_DocumentsProcessed_SystemReady"><path d="M215.43,542.51 C230.49,557 250.72,575.26 270.38,589.3 C285.43,600.05 297.5731,607.456 313.4431,616.116" fill="none" id="DocumentsProcessed-to-SystemReady" style="stroke:#000000;stroke-width:1;"/><polygon fill="#000000" points="318.71,618.99,312.7257,611.1677,314.3209,616.595,308.8937,618.1902,318.71,618.99" style="stroke:#000000;stroke-width:1;"/><text fill="#000000" font-family="Verdana" font-size="13" lengthAdjust="spacing" textLength="89.5083" x="271.38" y="585.3669">Reset System</text></g><!--link SystemReady to *end*--><g class="link" data-entity-1="SystemReady" data-entity-2=".end." data-source-line="22" data-uid="lnk29" id="link_SystemReady_.end."><path d="M425.77,662.54 C447.28,671.03 470.69,683.02 488.38,699.3 C507.21,716.64 517.0028,739.5417 522.2328,754.6117" fill="none" id="SystemReady-to-*end*" style="stroke:#000000;stroke-width:1;"/><polygon fill="#000000" points="524.2,760.28,525.0281,750.466,522.5607,755.5564,517.4703,753.0889,524.2,760.28" style="stroke:#000000;stroke-width:1;"/><text fill="#000000" font-family="Verdana" font-size="13" lengthAdjust="spacing" textLength="64.9048" x="503.38" y="712.3669">Shutdown</text></g><!--SRC=[TPBFJiCm3CRlVWfpuO2q5zW1gLebu0RhTa8SGchHYDQf4bTJGRmxIVzjtTfRu-_t-NFSt4b15M5TAiC0xmyVkDayuf4D6p6gD3-K0yoE7P2rNgZQayfRtEBBf0u2NEgHJwrkAcBnnxgqAWzTjjX_dYMuXQBrrLbDtXl-clHW7geNxYLk5Zq0NVOPnfsjwfA4O06C_eJzYLmWtnhoOYp7-CH_utW6yAA4bi1VG1ntceOCBRtisaDRKn1lY_rwgL8iHcUad2v2te5qmKQh4ZjmtVdSVZgJJxuq3ZPQhhf6_8cOd8fj-ka3DUkmmboNEYvS5Fu05jQm-XjsDip3JHZnFbdR__ofxScJhBsokEejPaKZkJtnFm00]--></g></svg>