<svg xmlns="http://www.w3.org/2000/svg" xmlns:xlink="http://www.w3.org/1999/xlink" contentStyleType="text/css" data-diagram-type="DESCRIPTION" height="731px" preserveAspectRatio="none" style="width:619px;height:731px;background:#FFFFFF;" version="1.1" viewBox="0 0 619 731" width="619px" zoomAndPan="magnify"><defs/><g><!--cluster Document Q&A System--><g class="cluster" data-entity="Document Q.A System" data-source-line="3" data-uid="ent0002" id="cluster_Document Q.A System"><path d="M13.5,11 L197.7578,11 A3.75,3.75 0 0 1 200.2578,13.5 L207.2578,33.2969 L609.5,33.2969 A2.5,2.5 0 0 1 612,35.7969 L612,722.28 A2.5,2.5 0 0 1 609.5,724.78 L13.5,724.78 A2.5,2.5 0 0 1 11,722.28 L11,13.5 A2.5,2.5 0 0 1 13.5,11" fill="#FFFFFF" style="stroke:#000000;stroke-width:1;"/><line style="stroke:#000000;stroke-width:1;" x1="11" x2="207.2578" y1="33.2969" y2="33.2969"/><text fill="#000000" font-family="Verdana" font-size="14" font-weight="bold" lengthAdjust="spacing" textLength="183.2578" x="15" y="25.9951">Document Q&amp;A System</text></g><!--entity WebApp--><g class="entity" data-entity="WebApp" data-source-line="5" data-uid="ent0003" id="entity_WebApp"><rect fill="#FFFFFF" height="46.2969" rx="2.5" ry="2.5" style="stroke:#000000;stroke-width:1;" width="171.8242" x="234.09" y="46"/><rect fill="#FFFFFF" height="10" style="stroke:#000000;stroke-width:1;" width="15" x="385.9142" y="51"/><rect fill="#FFFFFF" height="2" style="stroke:#000000;stroke-width:1;" width="4" x="383.9142" y="53"/><rect fill="#FFFFFF" height="2" style="stroke:#000000;stroke-width:1;" width="4" x="383.9142" y="57"/><text fill="#000000" font-family="Verdana" font-size="14" lengthAdjust="spacing" textLength="131.8242" x="249.09" y="78.9951">Streamlit Web App</text></g><!--entity DocParser--><g class="entity" data-entity="DocParser" data-source-line="6" data-uid="ent0004" id="entity_DocParser"><rect fill="#FFFFFF" height="46.2969" rx="2.5" ry="2.5" style="stroke:#000000;stroke-width:1;" width="161.4199" x="100.29" y="169.3"/><rect fill="#FFFFFF" height="10" style="stroke:#000000;stroke-width:1;" width="15" x="241.7099" y="174.3"/><rect fill="#FFFFFF" height="2" style="stroke:#000000;stroke-width:1;" width="4" x="239.7099" y="176.3"/><rect fill="#FFFFFF" height="2" style="stroke:#000000;stroke-width:1;" width="4" x="239.7099" y="180.3"/><text fill="#000000" font-family="Verdana" font-size="14" lengthAdjust="spacing" textLength="121.4199" x="115.29" y="202.2951">Document Parser</text></g><!--entity TextProc--><g class="entity" data-entity="TextProc" data-source-line="7" data-uid="ent0005" id="entity_TextProc"><rect fill="#FFFFFF" height="46.2969" rx="2.5" ry="2.5" style="stroke:#000000;stroke-width:1;" width="143.373" x="95.31" y="292.59"/><rect fill="#FFFFFF" height="10" style="stroke:#000000;stroke-width:1;" width="15" x="218.683" y="297.59"/><rect fill="#FFFFFF" height="2" style="stroke:#000000;stroke-width:1;" width="4" x="216.683" y="299.59"/><rect fill="#FFFFFF" height="2" style="stroke:#000000;stroke-width:1;" width="4" x="216.683" y="303.59"/><text fill="#000000" font-family="Verdana" font-size="14" lengthAdjust="spacing" textLength="103.373" x="110.31" y="325.5851">Text Processor</text></g><!--entity VectorDB--><g class="entity" data-entity="VectorDB" data-source-line="8" data-uid="ent0006" id="entity_VectorDB"><rect fill="#FFFFFF" height="46.2969" rx="2.5" ry="2.5" style="stroke:#000000;stroke-width:1;" width="156.9492" x="218.53" y="415.89"/><rect fill="#FFFFFF" height="10" style="stroke:#000000;stroke-width:1;" width="15" x="355.4792" y="420.89"/><rect fill="#FFFFFF" height="2" style="stroke:#000000;stroke-width:1;" width="4" x="353.4792" y="422.89"/><rect fill="#FFFFFF" height="2" style="stroke:#000000;stroke-width:1;" width="4" x="353.4792" y="426.89"/><text fill="#000000" font-family="Verdana" font-size="14" lengthAdjust="spacing" textLength="116.9492" x="233.53" y="448.8851">Vector Database</text></g><!--entity HybridSearch--><g class="entity" data-entity="HybridSearch" data-source-line="9" data-uid="ent0007" id="entity_HybridSearch"><rect fill="#FFFFFF" height="46.2969" rx="2.5" ry="2.5" style="stroke:#000000;stroke-width:1;" width="191.5186" x="27.24" y="662.48"/><rect fill="#FFFFFF" height="10" style="stroke:#000000;stroke-width:1;" width="15" x="198.7586" y="667.48"/><rect fill="#FFFFFF" height="2" style="stroke:#000000;stroke-width:1;" width="4" x="196.7586" y="669.48"/><rect fill="#FFFFFF" height="2" style="stroke:#000000;stroke-width:1;" width="4" x="196.7586" y="673.48"/><text fill="#000000" font-family="Verdana" font-size="14" lengthAdjust="spacing" textLength="151.5186" x="42.24" y="695.4751">Hybrid Search Engine</text></g><!--entity QASys--><g class="entity" data-entity="QASys" data-source-line="10" data-uid="ent0008" id="entity_QASys"><rect fill="#FFFFFF" height="46.2969" rx="2.5" ry="2.5" style="stroke:#000000;stroke-width:1;" width="117.2529" x="311.37" y="539.19"/><rect fill="#FFFFFF" height="10" style="stroke:#000000;stroke-width:1;" width="15" x="408.6229" y="544.19"/><rect fill="#FFFFFF" height="2" style="stroke:#000000;stroke-width:1;" width="4" x="406.6229" y="546.19"/><rect fill="#FFFFFF" height="2" style="stroke:#000000;stroke-width:1;" width="4" x="406.6229" y="550.19"/><text fill="#000000" font-family="Verdana" font-size="14" lengthAdjust="spacing" textLength="77.2529" x="326.37" y="572.1851">QA System</text></g><!--entity LLMHandler--><g class="entity" data-entity="LLMHandler" data-source-line="11" data-uid="ent0009" id="entity_LLMHandler"><rect fill="#FFFFFF" height="46.2969" rx="2.5" ry="2.5" style="stroke:#000000;stroke-width:1;" width="127.2539" x="412.37" y="662.48"/><rect fill="#FFFFFF" height="10" style="stroke:#000000;stroke-width:1;" width="15" x="519.6239" y="667.48"/><rect fill="#FFFFFF" height="2" style="stroke:#000000;stroke-width:1;" width="4" x="517.6239" y="669.48"/><rect fill="#FFFFFF" height="2" style="stroke:#000000;stroke-width:1;" width="4" x="517.6239" y="673.48"/><text fill="#000000" font-family="Verdana" font-size="14" lengthAdjust="spacing" textLength="87.2539" x="427.37" y="695.4751">LLM Handler</text></g><!--link WebApp to DocParser--><g class="link" data-entity-1="WebApp" data-entity-2="DocParser" data-source-line="13" data-uid="lnk10" id="link_WebApp_DocParser"><path d="M233.66,88.1 C215.67,95.77 198.66,106.7 187,122.3 C177.12,135.52 175.6055,148.4096 176.7955,163.0996" fill="none" id="WebApp-to-DocParser" style="stroke:#000000;stroke-width:1;"/><polygon fill="#000000" points="177.28,169.08,180.5403,159.7864,176.8763,164.0963,172.5664,160.4324,177.28,169.08" style="stroke:#000000;stroke-width:1;"/><text fill="#000000" font-family="Verdana" font-size="13" lengthAdjust="spacing" textLength="122.0464" x="188" y="135.3669">Upload documents</text></g><!--link DocParser to TextProc--><g class="link" data-entity-1="DocParser" data-entity-2="TextProc" data-source-line="14" data-uid="lnk11" id="link_DocParser_TextProc"><path d="M178.4,215.97 C175.88,237.76 172.7878,264.6196 170.2778,286.3696" fill="none" id="DocParser-to-TextProc" style="stroke:#000000;stroke-width:1;"/><polygon fill="#000000" points="169.59,292.33,174.5954,283.8479,170.1632,287.363,166.6481,282.9308,169.59,292.33" style="stroke:#000000;stroke-width:1;"/><text fill="#000000" font-family="Verdana" font-size="13" lengthAdjust="spacing" textLength="76.5781" x="175" y="258.6569">Extract text</text></g><!--link TextProc to VectorDB--><g class="link" data-entity-1="TextProc" data-entity-2="VectorDB" data-source-line="15" data-uid="lnk12" id="link_TextProc_VectorDB"><path d="M159.57,339.18 C156.21,353.72 154.79,372.39 164,385.89 C176.72,404.54 191.563,414.4548 212.683,422.1548" fill="none" id="TextProc-to-VectorDB" style="stroke:#000000;stroke-width:1;"/><polygon fill="#000000" points="218.32,424.21,211.2345,417.3692,213.6225,422.4974,208.4943,424.8853,218.32,424.21" style="stroke:#000000;stroke-width:1;"/><text fill="#000000" font-family="Verdana" font-size="13" lengthAdjust="spacing" textLength="145.1392" x="165" y="381.9569">Generate embeddings</text></g><!--link TextProc to HybridSearch--><g class="link" data-entity-1="TextProc" data-entity-2="HybridSearch" data-source-line="16" data-uid="lnk13" id="link_TextProc_HybridSearch"><path d="M153.13,339.23 C134,371.63 100.39,433.95 87,492.19 C73.02,552.97 64.32,573.3 84,632.48 C87.57,643.21 90.5465,648.829 97.4265,657.409" fill="none" id="TextProc-to-HybridSearch" style="stroke:#000000;stroke-width:1;"/><polygon fill="#000000" points="101.18,662.09,98.6704,652.5662,98.0521,658.1892,92.4291,657.5709,101.18,662.09" style="stroke:#000000;stroke-width:1;"/><text fill="#000000" font-family="Verdana" font-size="13" lengthAdjust="spacing" textLength="171.1328" x="88" y="505.2569">Index keywords and dates</text></g><!--link VectorDB to QASys--><g class="link" data-entity-1="VectorDB" data-entity-2="QASys" data-source-line="17" data-uid="lnk14" id="link_VectorDB_QASys"><path d="M279.18,462.51 C270.35,476.54 263.26,494.63 272,509.19 C280.93,524.06 290.3523,532.1993 305.7423,540.0293" fill="none" id="VectorDB-to-QASys" style="stroke:#000000;stroke-width:1;"/><polygon fill="#000000" points="311.09,542.75,304.8823,535.1038,306.6336,540.4827,301.2547,542.234,311.09,542.75" style="stroke:#000000;stroke-width:1;"/><text fill="#000000" font-family="Verdana" font-size="13" lengthAdjust="spacing" textLength="141.6606" x="273" y="505.2569">Provide vector search</text></g><!--link QASys to VectorDB--><g class="link" data-entity-1="QASys" data-entity-2="VectorDB" data-source-line="21" data-uid="lnk18" id="link_QASys_VectorDB"><path d="M401.93,538.86 C416.93,525.46 429.46,508.03 419,492.19 C408.72,476.61 398.2006,468.1442 381.1506,460.4642" fill="none" id="QASys-to-VectorDB" style="stroke:#000000;stroke-width:1;"/><polygon fill="#000000" points="375.68,458,382.2431,465.3434,380.2389,460.0535,385.5287,458.0492,375.68,458" style="stroke:#000000;stroke-width:1;"/><text fill="#000000" font-family="Verdana" font-size="13" lengthAdjust="spacing" textLength="129.3716" x="423" y="505.2569">Search embeddings</text></g><!--link HybridSearch to QASys--><g class="link" data-entity-1="HybridSearch" data-entity-2="QASys" data-source-line="18" data-uid="lnk15" id="link_HybridSearch_QASys"><path d="M103.89,662.15 C93.92,647.6 85.88,628.92 97,615.48 C123.6,583.32 232.9329,571.2034 304.9229,566.4734" fill="none" id="HybridSearch-to-QASys" style="stroke:#000000;stroke-width:1;"/><polygon fill="#000000" points="310.91,566.08,301.6671,562.6787,305.9208,566.4078,302.1916,570.6615,310.91,566.08" style="stroke:#000000;stroke-width:1;"/><text fill="#000000" font-family="Verdana" font-size="13" lengthAdjust="spacing" textLength="141.8193" x="98" y="628.5469">Provide hybrid search</text></g><!--link QASys to HybridSearch--><g class="link" data-entity-1="QASys" data-entity-2="HybridSearch" data-source-line="22" data-uid="lnk19" id="link_QASys_HybridSearch"><path d="M329.39,585.87 C295.91,604.41 252.58,628.29 244,632.48 C222.83,642.83 204.6348,650.9499 183.8348,659.7599" fill="none" id="QASys-to-HybridSearch" style="stroke:#000000;stroke-width:1;"/><polygon fill="#000000" points="178.31,662.1,188.1573,662.2731,182.914,660.1499,185.0372,654.9066,178.31,662.1" style="stroke:#000000;stroke-width:1;"/><text fill="#000000" font-family="Verdana" font-size="13" lengthAdjust="spacing" textLength="151.7217" x="275" y="628.5469">Search keywords/dates</text></g><!--link WebApp to QASys--><g class="link" data-entity-1="WebApp" data-entity-2="QASys" data-source-line="19" data-uid="lnk16" id="link_WebApp_QASys"><path d="M343.58,92.53 C375.68,124.07 433.21,184.59 469,245.59 C528.19,346.49 540.23,377.07 561,492.19 C562.34,499.62 565.59,503.18 561,509.19 C544.89,530.29 484.5695,543.9405 434.5895,552.2105" fill="none" id="WebApp-to-QASys" style="stroke:#000000;stroke-width:1;"/><polygon fill="#000000" points="428.67,553.19,438.2023,555.6671,433.6029,552.3738,436.8963,547.7744,428.67,553.19" style="stroke:#000000;stroke-width:1;"/><text fill="#000000" font-family="Verdana" font-size="13" lengthAdjust="spacing" textLength="90.2637" x="519" y="320.3069">Ask questions</text></g><!--link QASys to LLMHandler--><g class="link" data-entity-1="QASys" data-entity-2="LLMHandler" data-source-line="20" data-uid="lnk17" id="link_QASys_LLMHandler"><path d="M404.28,585.9 C415.54,594.34 427.57,604.54 437,615.48 C449.06,629.47 456.5636,642.3605 463.4736,656.6205" fill="none" id="QASys-to-LLMHandler" style="stroke:#000000;stroke-width:1;"/><polygon fill="#000000" points="466.09,662.02,465.765,652.1765,463.9096,657.5204,458.5657,655.6651,466.09,662.02" style="stroke:#000000;stroke-width:1;"/><text fill="#000000" font-family="Verdana" font-size="13" lengthAdjust="spacing" textLength="118.5742" x="449" y="628.5469">Generate answers</text></g><!--link WebApp to VectorDB--><g class="link" data-entity-1="WebApp" data-entity-2="VectorDB" data-source-line="23" data-uid="lnk20" id="link_WebApp_VectorDB"><path d="M322.05,92.58 C326.28,144.61 334.09,277.36 315,385.89 C313.24,395.89 311.9363,400.9244 308.5763,409.9844" fill="none" id="WebApp-to-VectorDB" style="stroke:#000000;stroke-width:1;"/><polygon fill="#000000" points="306.49,415.61,313.3699,408.5625,308.2286,410.922,305.8691,405.7807,306.49,415.61" style="stroke:#000000;stroke-width:1;"/><text fill="#000000" font-family="Verdana" font-size="13" lengthAdjust="spacing" textLength="132.1074" x="328" y="258.6569">Save/Load database</text></g><!--SRC=[RLBBQiCm4BpxAxOvz1Poxw7Waj0KKcX87uVImzfQ715RTYNbHUc_TzUoR2SKSj3Ep2upuzpuBLK4JOdQ94c3-GuBWicyplSL6G_hsnGsP-Ufci1F0i2_pustX5MfFNnG1cdJV04wUVDJ-7xv1QqZsxACXKa4htHYqjOvELS7NY11X7wdtDSMvkWnGqSj7x3vW_3BSsQrWWsXpRUmC8KsGHI8W8jm7Rstx3hbGU3LwXcMQ5JPUUEv6nEcGmwOJky7qt07RqrPemBLPPD30otYc82rYvEtc7lm3B6kPqGMWx3iaGnPz0HKPQIKDeMxLeyJySQJKNI27PsFjLKEs3GeFY1h_LrPQwEodkySj28uX4PTRERYx7yBsr1nlp0g9KfJjuFlFJclQoC60YwAeSznI3JkIFPIEIgZCtDHnI2ywg5xn29ciOIHpV5fFD1irNwzxY-L9Bz_]--></g></svg>